<svg xmlns="http://www.w3.org/2000/svg" xmlns:xlink="http://www.w3.org/1999/xlink" version="1.1" viewBox="0 0 512 512" style="enable-background:new 0 0 512 512;" xml:space="preserve"><g id="_x33_3_x2C__Hexagon_x2C__business_and_finance_x2C__analytics_x2C__stats_x2C__infographic_x2C__statistics"><g><g><path style="fill:#5596FB;" d="M240.01,2.34c-3.094-1.787-6.906-1.787-10,0L48.61,107.071c-3.099,1.789-5.005,5.097-5,8.674     c0.005,3.578,1.921,6.881,5.024,8.661l63.18,36.239c3.096,1.776,6.895,1.763,9.976-0.015l118.22-68.26     c3.094-1.786,5-5.088,5-8.66V11C245.01,7.428,243.104,4.126,240.01,2.34z M225.01,77.937l-108.236,62.495l-43.114-24.729     L225.01,28.321V77.937z"/><path style="fill:#5596FB;" d="M240.01,419.63l-118.22-68.26c-3.085-1.782-6.885-1.787-9.976-0.015l-63.18,36.239     c-3.104,1.78-5.02,5.083-5.024,8.661c-0.005,3.577,1.901,6.885,5,8.674L230.01,509.66c3.094,1.787,6.908,1.786,10,0     c3.094-1.786,5-5.088,5-8.66v-72.71C245.01,424.718,243.104,421.416,240.01,419.63z M225.01,483.68L73.659,396.298l43.114-24.729     l108.236,62.495V483.68z"/><path style="fill:#5596FB;" d="M483.683,143.847c-3.086-1.787-6.892-1.796-9.987-0.021l-62.97,36.11     c-3.108,1.782-5.025,5.092-5.025,8.675V323.39c0,3.583,1.917,6.893,5.025,8.675l62.97,36.11c3.129,1.795,6.935,1.746,9.987-0.021     c3.087-1.789,4.987-5.086,4.987-8.653v-207C488.67,148.933,486.77,145.636,483.683,143.847z M468.67,342.239l-42.97-24.642     V194.404l42.97-24.642V342.239z"/></g><g><path style="fill:#283954;" d="M271.99,92.37l118.22,68.26c3.085,1.782,6.887,1.786,9.976,0.015l63.18-36.239     c3.104-1.78,5.02-5.083,5.024-8.661c0.005-3.577-1.901-6.885-5-8.674L281.99,2.34c-3.094-1.787-6.906-1.787-10,0     c-3.094,1.786-5,5.088-5,8.66v72.71C266.99,87.282,268.896,90.584,271.99,92.37z M286.99,28.321l151.351,87.382l-43.114,24.729     L286.99,77.937V28.321z"/><path style="fill:#283954;" d="M101.274,179.936l-62.97-36.11c-3.094-1.774-6.899-1.766-9.987,0.021     c-3.087,1.789-4.987,5.086-4.987,8.653v207c0,3.567,1.9,6.864,4.987,8.653c3.12,1.807,6.926,1.777,9.987,0.021l62.97-36.11     c3.108-1.782,5.025-5.092,5.025-8.675V188.611C106.3,185.028,104.383,181.718,101.274,179.936z M86.3,317.597l-42.97,24.642     V169.762l42.97,24.642V317.597z"/><path style="fill:#283954;" d="M463.365,387.595l-63.18-36.239c-3.09-1.772-6.89-1.767-9.976,0.015l-118.22,68.26     c-3.094,1.786-5,5.088-5,8.66V501c0,5.505,4.466,10,10,10c1.727,0,3.453-0.446,5-1.34L463.39,404.93     c3.099-1.789,5.005-5.097,5-8.674C468.385,392.678,466.469,389.375,463.365,387.595z M286.99,483.68v-49.616l108.236-62.495     l43.114,24.729L286.99,483.68z"/><path style="fill:#283954;" d="M362.74,311.85V200.151c0-3.572-1.906-6.874-5-8.66L261,135.64c-3.094-1.787-6.906-1.787-10,0     l-96.74,55.851c-3.094,1.786-5,5.088-5,8.66V311.85c0,3.572,1.906,6.874,5,8.66L251,376.361c3.094,1.787,6.908,1.786,10,0     l96.74-55.851C360.834,318.724,362.74,315.422,362.74,311.85z M342.74,306.076L256,356.154l-86.74-50.077V205.924L256,155.847     l86.74,50.077V306.076z"/><path style="fill:#283954;" d="M201,231c0,5.522,4.478,10,10,10h90c5.522,0,10-4.478,10-10s-4.478-10-10-10h-90     C205.478,221,201,225.478,201,231z"/><path style="fill:#283954;" d="M301,271h-90c-5.522,0-10,4.478-10,10s4.478,10,10,10h90c5.522,0,10-4.478,10-10     S306.522,271,301,271z"/></g></g></g><g id="Layer_1"/></svg>